<?xml version="1.0" encoding="utf-8"?>
<!-- Generator: Adobe Illustrator 15.0.0, SVG Export Plug-In . SVG Version: 6.00 Build 0)  -->
<!DOCTYPE svg PUBLIC "-//W3C//DTD SVG 1.1//EN" "http://www.w3.org/Graphics/SVG/1.1/DTD/svg11.dtd">
<svg version="1.1" id="Calque_1" xmlns="http://www.w3.org/2000/svg" xmlns:xlink="http://www.w3.org/1999/xlink" x="0px" y="0px"
	 width="1248.582px" height="627.587px" viewBox="0 72.3 1248.582 627.587" enable-background="new 0 72.3 1248.582 627.587"
	 xml:space="preserve">
<g>
	<path fill="#35A5C3" d="M1061.236,486.167v-50.812h-44.217V229.779h-95.031v50.812h43.83v154.765H921.6v50.812h44.219H1061.236
		L1061.236,486.167z M1031.758,116.519c0-24.437-19.781-44.219-44.219-44.219s-44.219,19.782-44.219,44.219
		c0,24.438,19.781,44.219,44.219,44.219S1031.758,140.955,1031.758,116.519L1031.758,116.519z M736.582,313.948
		c0-96.581,7.369-128.775,51.977-128.775c32.969,0,36.461,28.315,36.461,40.729h50.812c0-53.915-36.072-91.54-87.273-91.54
		c-45.77,0-77.576,22.497-91.928,65.552c-10.859,32.97-10.859,74.085-10.859,114.036c0,39.952,0,81.455,10.859,114.036
		c14.352,42.667,46.158,65.552,91.928,65.552c51.588,0,87.273-37.624,87.273-91.539H825.02c0,12.412-3.49,40.728-36.461,40.728
		C749.383,442.725,736.582,424.106,736.582,313.948L736.582,313.948z M514.715,225.9c0-23.661,18.618-40.729,44.218-40.729
		c25.6,0,44.218,17.066,44.218,40.729h50.812c0-51.978-40.727-91.54-95.03-91.54c-54.303,0-95.03,39.176-95.03,91.54
		c0,51.976,42.667,82.229,80.291,108.992c35.685,25.214,58.958,43.442,58.958,67.491c0,23.661-18.617,40.729-44.218,40.729
		c-25.6,0-44.218-17.066-44.218-40.729h-50.812c0,51.977,40.727,91.539,95.03,91.539c54.304,0,95.031-39.176,95.031-91.539
		c0-51.976-42.667-82.229-80.292-108.994C537.988,268.179,514.715,249.948,514.715,225.9L514.715,225.9z M365.77,486.167h58.57
		V141.73h-50.812v219.15l-80.679-219.15h-58.57v344.437h50.812V267.403L365.77,486.167L365.77,486.167z M0,486.167h181.915v-50.812
		H50.424V324.809h83.006v-50.812H50.424v-81.455h131.491V141.73H0v132.267v50.812V486.167L0,486.167z"/>
	<path fill="#35A5C3" d="M441.406,679.718V573.052h-10.86l0.388,126.062h53.527v-19.396H441.406L441.406,679.718z M553.503,573.052
		h-53.915v125.673h53.915V679.33h-43.055v-38.788h29.867v-19.394h-29.867v-28.703h43.055V573.052L553.503,573.052z M579.878,608.349
		c0-10.085,6.595-16.679,15.904-16.679c9.309,0,15.515,6.981,15.515,16.679h10.86c0-6.206-1.164-12.411-3.492-17.843
		c-5.041-11.248-13.188-18.229-22.885-18.229c-4.654,0-8.921,1.552-13.188,5.043c-8.146,6.594-13.576,18.229-13.576,31.029
		c0,7.369,1.164,13.575,3.879,18.618c5.042,9.696,11.249,13.963,22.497,19.781c10.861,5.431,15.903,8.922,15.903,17.067
		c0,9.695-6.594,16.679-15.516,16.679c-9.309,0-15.515-6.982-15.515-16.679h-10.86c0,6.206,1.164,12.411,3.491,17.842
		c5.042,11.249,13.188,18.229,22.886,18.229c4.653,0,8.92-1.552,13.188-5.042c7.757-6.594,13.188-18.618,13.188-31.029
		c0-7.37-1.164-13.965-3.49-19.008c-5.043-9.695-11.637-13.574-22.885-19.78C584.535,619.984,579.878,616.494,579.878,608.349
		L579.878,608.349z M757.916,698.725l-23.66-126.061h-12.801l-23.66,126.061h11.248l5.816-31.807h25.988l6.207,31.807H757.916
		L757.916,698.725z M727.66,599.039l9.311,48.873h-18.617L727.66,599.039L727.66,599.039z M765.285,573.052v19.395h20.17v106.278
		h10.861V592.445h20.168v-19.395L765.285,573.052L765.285,573.052z M886.303,573.052h-53.914v125.673h53.914V679.33h-43.055v-38.788
		h29.867v-19.394h-29.867v-28.703h43.055V573.052L886.303,573.052z M916.559,679.718V573.052h-10.861l0.389,126.062h53.527v-19.396
		H916.559L916.559,679.718z M1025.939,573.052H974.74v19.395h20.17v87.271h-20.17v19.396h51.199v-19.396h-20.17v-87.271h20.17
		V573.052L1025.939,573.052z M1099.637,573.052h-53.916v125.673h53.916V679.33h-43.055v-38.788h29.865v-19.394h-29.865v-28.703
		h43.055V573.052L1099.637,573.052z M1158.594,643.258c10.086-5.431,17.066-19.006,17.066-33.746c0-6.594-1.162-12.412-3.49-17.842
		c-5.043-11.249-13.576-18.229-22.887-18.229h-30.254v125.284h10.861v-53.14h17.455l20.945,53.14h12.799L1158.594,643.258
		L1158.594,643.258z M1129.504,626.579v-33.746h19.779c9.311,0,15.518,7.37,15.518,17.067c0,9.695-6.594,17.065-15.904,17.065
		h-19.393V626.579z M1206.303,608.349c0-10.085,6.594-16.679,15.904-16.679c9.309,0,15.514,6.981,15.514,16.679h10.861
		c0-6.206-1.164-12.411-3.49-17.843c-5.043-11.248-13.189-18.229-22.885-18.229c-4.654,0-8.922,1.552-13.189,5.043
		c-8.145,6.594-13.576,18.229-13.576,31.029c0,7.369,1.164,13.575,3.879,18.618c5.043,9.696,11.248,13.963,22.498,19.781
		c10.859,5.431,15.902,8.922,15.902,17.067c0,9.695-6.594,16.679-15.516,16.679c-9.311,0-15.516-6.982-15.516-16.679h-10.859
		c0,6.206,1.164,12.411,3.49,17.842c5.041,11.249,13.188,18.229,22.885,18.229c4.654,0,8.922-1.552,13.188-5.042
		c7.758-6.594,13.189-18.618,13.189-31.029c0-7.37-1.164-13.965-3.492-19.008c-5.043-9.695-11.637-13.574-22.885-19.78
		C1211.346,619.984,1206.303,616.494,1206.303,608.349L1206.303,608.349z"/>
</g>
</svg>
